<?xml version="1.0" encoding="UTF-8" standalone="no"?>
<svg
   xmlns:dc="http://purl.org/dc/elements/1.1/"
   xmlns:cc="http://creativecommons.org/ns#"
   xmlns:rdf="http://www.w3.org/1999/02/22-rdf-syntax-ns#"
   xmlns:svg="http://www.w3.org/2000/svg"
   xmlns="http://www.w3.org/2000/svg"
   xmlns:sodipodi="http://sodipodi.sourceforge.net/DTD/sodipodi-0.dtd"
   xmlns:inkscape="http://www.inkscape.org/namespaces/inkscape"
   width="300pt"
   height="600pt"
   version="1.1"
   viewBox="0 0 300 600"
   id="svg4299"
   inkscape:version="0.91 r13725"
   sodipodi:docname="authorsuggest.svg">
  <metadata
     id="metadata4307">
    <rdf:RDF>
      <cc:Work
         rdf:about="">
        <dc:format>image/svg+xml</dc:format>
        <dc:type
           rdf:resource="http://purl.org/dc/dcmitype/StillImage" />
        <dc:title></dc:title>
      </cc:Work>
    </rdf:RDF>
  </metadata>
  <defs
     id="defs4305" />
  <sodipodi:namedview
     pagecolor="#ffffff"
     bordercolor="#666666"
     borderopacity="1"
     objecttolerance="10"
     gridtolerance="10"
     guidetolerance="10"
     inkscape:pageopacity="0"
     inkscape:pageshadow="2"
     inkscape:window-width="1225"
     inkscape:window-height="799"
     id="namedview4303"
     showgrid="false"
     showguides="false"
     inkscape:zoom="0.70710678"
     inkscape:cx="54.496484"
     inkscape:cy="376.96097"
     inkscape:window-x="0"
     inkscape:window-y="0"
     inkscape:window-maximized="0"
     inkscape:current-layer="svg4299" />
  <path
     d="m 214.99746,78.07346 0,85.33333 c 0,8.35413 -4.26381,15.64586 -10.66667,20.26311 l 0,-19.37422 0,-1.06944 0,-85.152 c 0,-7.81938 -6.75697,-14.22222 -14.93048,-14.22222 l -85.86845,0 -12.798568,14.22222 78.040888,0 c 11.73618,0 21.33333,9.59716 21.33333,21.33333 l 0,92.44444 c 0,11.73618 -9.59715,21.33334 -21.33333,21.33334 l -90.666666,0 c -0.888888,0 -1.777777,-0.88889 -1.777777,-1.77778 l 0,-133.33333 0.180551,0 22.396438,-24.88889 90.485334,0 c 14.04853,0 25.60356,11.20142 25.60356,24.88889 z"
     id="path4301"
     inkscape:connector-curvature="0" />
  <path
     inkscape:connector-curvature="0"
     id="path4309"
     d="m 214.99746,392.35334 0,85.33333 c 0,8.35413 -4.26381,15.64586 -10.66667,20.26311 l 0,-19.37422 0,-1.06944 0,-85.152 c 0,-7.81938 -6.75697,-14.22222 -14.93048,-14.22222 l -85.86845,0 -12.798568,14.22222 78.040888,0 c 11.73618,0 21.33333,9.59716 21.33333,21.33333 l 0,92.44444 c 0,11.73618 -9.59715,21.33334 -21.33333,21.33334 l -90.666666,0 c -0.888888,0 -1.777777,-0.88889 -1.777777,-1.77778 l 0,-133.33333 0.180551,0 22.396438,-24.88889 90.485334,0 c 14.04853,0 25.60356,11.20142 25.60356,24.88889 z"
     style="fill:#ffffff" />
</svg>
