<?xml version="1.0" encoding="UTF-8" standalone="no"?>
<svg
   xmlns:dc="http://purl.org/dc/elements/1.1/"
   xmlns:cc="http://creativecommons.org/ns#"
   xmlns:rdf="http://www.w3.org/1999/02/22-rdf-syntax-ns#"
   xmlns:svg="http://www.w3.org/2000/svg"
   xmlns="http://www.w3.org/2000/svg"
   xmlns:sodipodi="http://sodipodi.sourceforge.net/DTD/sodipodi-0.dtd"
   xmlns:inkscape="http://www.inkscape.org/namespaces/inkscape"
   version="1.1"
   x="0px"
   y="0px"
   viewBox="0 0 66 132"
   enable-background="new 0 0 100 100"
   xml:space="preserve"
   id="svg2"
   inkscape:version="0.91 r13725"
   sodipodi:docname="binoculars.svg"
   width="66"
   height="132"><metadata
     id="metadata14"><rdf:RDF><cc:Work
         rdf:about=""><dc:format>image/svg+xml</dc:format><dc:type
           rdf:resource="http://purl.org/dc/dcmitype/StillImage" /><dc:title></dc:title></cc:Work></rdf:RDF></metadata><defs
     id="defs12" /><sodipodi:namedview
     pagecolor="#ffffff"
     bordercolor="#666666"
     borderopacity="1"
     objecttolerance="10"
     gridtolerance="10"
     guidetolerance="10"
     inkscape:pageopacity="0"
     inkscape:pageshadow="2"
     inkscape:window-width="1275"
     inkscape:window-height="711"
     id="namedview10"
     showgrid="true"
     fit-margin-top="0"
     fit-margin-left="0"
     fit-margin-right="0"
     fit-margin-bottom="0"
     inkscape:zoom="2.6700352"
     inkscape:cx="50.371226"
     inkscape:cy="66.579268"
     inkscape:window-x="0"
     inkscape:window-y="23"
     inkscape:window-maximized="0"
     inkscape:current-layer="svg2"
     showguides="true"><inkscape:grid
       type="xygrid"
       id="grid3363" /></sodipodi:namedview><path
     inkscape:connector-curvature="0"
     id="path4-7"
     d="m 53.663151,34.845539 c -0.261632,-0.252928 -0.537088,-0.492032 -0.82432,-0.717312 l 0,0 -3.933696,-3.335168 c -1.513472,-1.074176 -3.323904,-1.75616 -5.281792,-1.895424 l 0.206848,0.207872 -2.38848,-2.402304 -0.01485,0.0041 c -0.665088,-0.605696 -1.549824,-0.97536 -2.520576,-0.97536 -1.665536,0 -3.076096,1.087488 -3.563008,2.590208 -0.479232,-0.304128 -1.038336,-0.49408 -1.638912,-0.530432 -0.09882,-0.0087 -0.198144,-0.01382 -0.299008,-0.01382 -0.681984,0 -1.317376,0.198656 -1.852928,0.539648 -0.489984,-1.497088 -1.897984,-2.578944 -3.559424,-2.578944 -0.970752,0 -1.855488,0.369152 -2.520576,0.97536 l -0.01485,-0.0041 -2.38848,2.402304 0.206848,-0.207872 c -1.9584,0.138752 -3.768832,0.820736 -5.281792,1.895424 l -3.933696,3.335168 0,0 c -0.28672,0.224768 -0.562176,0.463872 -0.82432,0.717312 -1.963008,1.899008 -3.185664,4.55936 -3.185664,7.499776 0,5.75488 4.68224,10.43712 10.43712,10.43712 5.31968,0 9.722368,-4.000768 10.35776,-9.151488 0.768512,0.44032 1.657344,0.693248 2.605056,0.693248 0.9472,0 1.836032,-0.252928 2.604544,-0.693248 0.638464,5.147136 5.039616,9.144832 10.356736,9.144832 5.75488,0 10.43712,-4.68224 10.43712,-10.43712 -5.12e-4,-2.940416 -1.222656,-5.600768 -3.185664,-7.499776 z m -33.176064,14.6304 c -3.934208,0 -7.123456,-3.189248 -7.123456,-7.123456 0,-3.934208 3.189248,-7.123456 7.123456,-7.123456 0.22528,0 0.448,0.01178 0.66816,0.03226 l 0.895488,0.141824 c 3.181568,0.712704 5.56032,3.552768 5.56032,6.949376 0,3.934208 -3.18976,7.123456 -7.123968,7.123456 z m 12.961792,-7.581696 c -1.36704,0 -2.507776,-0.969728 -2.77248,-2.258432 -0.03686,-0.182272 -0.05632,-0.3712 -0.05632,-0.564224 0,-1.563136 1.266688,-2.829824 2.829824,-2.829824 l 5.12e-4,0 c 1.36704,0 2.507776,0.969728 2.77248,2.258432 0.03686,0.182272 0.05632,0.3712 0.05632,0.564736 -5.12e-4,1.562112 -1.2672,2.829312 -2.830336,2.829312 z m 12.962816,7.57504 c -3.934208,0 -7.123456,-3.189248 -7.123456,-7.123456 0,-3.39712 2.37824,-6.236672 5.56032,-6.949376 l 0.895488,-0.141824 c 0.22016,-0.02048 0.442368,-0.03226 0.66816,-0.03226 3.934208,0 7.123456,3.189248 7.123456,7.123456 -5.12e-4,3.933696 -3.18976,7.123456 -7.123968,7.123456 z" /><path
     d="m 53.663151,87.957403 c -0.261632,-0.252928 -0.537088,-0.492032 -0.82432,-0.717312 l 0,0 -3.933696,-3.33517 c -1.513472,-1.074176 -3.323904,-1.75616 -5.281792,-1.895424 l 0.206848,0.207872 -2.38848,-2.402304 -0.01485,0.004 c -0.665088,-0.605696 -1.549824,-0.97536 -2.520576,-0.97536 -1.665536,0 -3.076096,1.087488 -3.563008,2.590208 -0.479232,-0.304128 -1.038336,-0.49408 -1.638912,-0.530432 -0.09882,-0.0087 -0.198144,-0.01384 -0.299008,-0.01384 -0.681984,0 -1.317376,0.198656 -1.852928,0.539648 -0.489984,-1.497088 -1.897984,-2.578944 -3.559424,-2.578944 -0.970752,0 -1.855488,0.369152 -2.520576,0.97536 l -0.01485,-0.004 -2.38848,2.402304 0.206848,-0.207872 c -1.9584,0.138752 -3.768832,0.820736 -5.281792,1.895424 l -3.933696,3.33517 0,0 c -0.28672,0.224768 -0.562176,0.463872 -0.82432,0.717312 -1.963008,1.899008 -3.185664,4.559364 -3.185664,7.49978 0,5.754877 4.68224,10.437117 10.43712,10.437117 5.31968,0 9.722368,-4.00077 10.35776,-9.151485 0.768512,0.44032 1.657344,0.693248 2.605056,0.693248 0.9472,0 1.836032,-0.252928 2.604544,-0.693248 0.638464,5.147135 5.039616,9.144835 10.356736,9.144835 5.75488,0 10.43712,-4.68224 10.43712,-10.437123 -5.12e-4,-2.940416 -1.222656,-5.600772 -3.185664,-7.49978 z M 20.487087,102.58781 c -3.934208,0 -7.123456,-3.189251 -7.123456,-7.123459 0,-3.934208 3.189248,-7.12346 7.123456,-7.12346 0.22528,0 0.448,0.01176 0.66816,0.03224 l 0.895488,0.141824 c 3.181568,0.712704 5.56032,3.552772 5.56032,6.94938 0,3.934208 -3.18976,7.123455 -7.123968,7.123455 z m 12.961792,-7.581699 c -1.36704,0 -2.507776,-0.969728 -2.77248,-2.258432 -0.03686,-0.182272 -0.05632,-0.3712 -0.05632,-0.564224 0,-1.563136 1.266688,-2.829828 2.829824,-2.829828 l 5.12e-4,0 c 1.36704,0 2.507776,0.969732 2.77248,2.258436 0.03686,0.182272 0.05632,0.3712 0.05632,0.564736 -5.12e-4,1.562112 -1.2672,2.829312 -2.830336,2.829312 z m 12.962816,7.575039 c -3.934208,0 -7.123456,-3.189247 -7.123456,-7.123455 0,-3.39712 2.37824,-6.236676 5.56032,-6.94938 l 0.895488,-0.141824 c 0.22016,-0.02048 0.442368,-0.03224 0.66816,-0.03224 3.934208,0 7.123456,3.189252 7.123456,7.12346 -5.12e-4,3.933696 -3.18976,7.123459 -7.123968,7.123459 z"
     id="path4"
     inkscape:connector-curvature="0"
     style="fill:#cc0000;fill-opacity:1" /></svg>