<?xml version="1.0" encoding="UTF-8" standalone="no"?>
<svg
   xmlns:dc="http://purl.org/dc/elements/1.1/"
   xmlns:cc="http://creativecommons.org/ns#"
   xmlns:rdf="http://www.w3.org/1999/02/22-rdf-syntax-ns#"
   xmlns:svg="http://www.w3.org/2000/svg"
   xmlns="http://www.w3.org/2000/svg"
   xmlns:sodipodi="http://sodipodi.sourceforge.net/DTD/sodipodi-0.dtd"
   xmlns:inkscape="http://www.inkscape.org/namespaces/inkscape"
   enable-background="new 0 0 128 128"
   id="Social_Icons"
   version="1.1"
   viewBox="0 0 300 600"
   xml:space="preserve"
   inkscape:version="0.91 r13725"
   sodipodi:docname="bitly.svg"
   width="300"
   height="600"><metadata
     id="metadata4158"><rdf:RDF><cc:Work
         rdf:about=""><dc:format>image/svg+xml</dc:format><dc:type
           rdf:resource="http://purl.org/dc/dcmitype/StillImage" /><dc:title></dc:title></cc:Work></rdf:RDF></metadata><defs
     id="defs4156" /><sodipodi:namedview
     pagecolor="#ffffff"
     bordercolor="#666666"
     borderopacity="1"
     objecttolerance="10"
     gridtolerance="10"
     guidetolerance="10"
     inkscape:pageopacity="0"
     inkscape:pageshadow="2"
     inkscape:window-width="1103"
     inkscape:window-height="738"
     id="namedview4154"
     showgrid="false"
     inkscape:zoom="0.5"
     inkscape:cx="8.0962951"
     inkscape:cy="267.16555"
     inkscape:window-x="0"
     inkscape:window-y="0"
     inkscape:window-maximized="0"
     inkscape:current-layer="Social_Icons" /><g
     id="_x33__stroke"
     transform="matrix(1.5625,0,0,1.5625,48,45.999431)"><g
       id="Bitly_1_"><rect
         height="128"
         width="128"
         id="rect4151"
         x="0"
         y="0"
         style="clip-rule:evenodd;fill:none;fill-rule:evenodd" /><path
         d="M 63.708,0 C 28.443,0 0,28.306 0,65.322 c 0,19.193 10.266,37.736 24.703,48.877 2.78,2.145 6.091,1.949 7.989,0.109 1.599,-1.55 1.467,-5.282 -1.507,-7.897 C 19.644,96.262 11.665,80.897 11.665,65.55 c 0,-27.564 24.474,-50.756 52.044,-50.756 33.558,0 51.503,27.252 51.503,50.351 0,14.114 -6.902,31.155 -19.361,42.025 0.019,-0.049 2.588,-5.101 2.588,-14.94 0,-16.748 -10.612,-25.821 -22.926,-25.821 -8.914,0 -14.251,3.187 -17.883,6.158 0,-6.822 0.228,-19.563 0.228,-19.563 0,-8.409 -2.946,-15.14 -13.213,-15.287 -5.943,-0.084 -10.353,2.641 -13.103,8.803 -0.991,2.311 -0.626,4.822 1.333,5.96 1.621,0.941 4.287,0.243 5.606,-1.517 0.881,-1.1 1.375,-1.335 2.141,-1.252 1.261,0.136 1.309,2.168 1.359,3.468 0.038,0.998 1.008,15.494 0.477,52.746 0,10.275 8.059,22.077 27.355,22.077 8.307,0 14.686,-2.322 23.953,-7.587 C 107.871,112.398 128,94.62 128,64.55 128,26.977 97.572,0 63.708,0 Z m 6.052,113.602 c -7.183,0.126 -12.422,-2.183 -12.743,-8.461 -0.12,-2.356 -0.082,-4.865 0.033,-6.378 0.695,-9.174 7.11,-15.774 13.443,-17.041 7.876,-1.576 13.123,2.026 13.123,12.337 -0.001,6.968 -1.935,19.334 -13.856,19.543 z"
         id="Bitly"
         inkscape:connector-curvature="0"
         style="clip-rule:evenodd;fill:#000000;fill-rule:evenodd" /></g></g><g
     id="_x33__stroke-8"
     transform="matrix(1.5625,0,0,1.5625,50,353.99844)"><g
       id="Bitly_1_-8"><rect
         id="rect4215"
         width="128"
         height="128"
         x="0"
         y="0"
         style="clip-rule:evenodd;fill:none;fill-rule:evenodd" /><path
         id="Bitly-4"
         d="M 63.708,0 C 28.443,0 0,28.306 0,65.322 c 0,19.193 10.266,37.736 24.703,48.877 2.78,2.145 6.091,1.949 7.989,0.109 1.599,-1.55 1.467,-5.282 -1.507,-7.897 C 19.644,96.262 11.665,80.897 11.665,65.55 c 0,-27.564 24.474,-50.756 52.044,-50.756 33.558,0 51.503,27.252 51.503,50.351 0,14.114 -6.902,31.155 -19.361,42.025 0.019,-0.049 2.588,-5.101 2.588,-14.94 0,-16.748 -10.612,-25.821 -22.926,-25.821 -8.914,0 -14.251,3.187 -17.883,6.158 0,-6.822 0.228,-19.563 0.228,-19.563 0,-8.409 -2.946,-15.14 -13.213,-15.287 -5.943,-0.084 -10.353,2.641 -13.103,8.803 -0.991,2.311 -0.626,4.822 1.333,5.96 1.621,0.941 4.287,0.243 5.606,-1.517 0.881,-1.1 1.375,-1.335 2.141,-1.252 1.261,0.136 1.309,2.168 1.359,3.468 0.038,0.998 1.008,15.494 0.477,52.746 0,10.275 8.059,22.077 27.355,22.077 8.307,0 14.686,-2.322 23.953,-7.587 C 107.871,112.398 128,94.62 128,64.55 128,26.977 97.572,0 63.708,0 Z m 6.052,113.602 c -7.183,0.126 -12.422,-2.183 -12.743,-8.461 -0.12,-2.356 -0.082,-4.865 0.033,-6.378 0.695,-9.174 7.11,-15.774 13.443,-17.041 7.876,-1.576 13.123,2.026 13.123,12.337 -0.001,6.968 -1.935,19.334 -13.856,19.543 z"
         inkscape:connector-curvature="0"
         style="clip-rule:evenodd;fill:#ffffff;fill-rule:evenodd" /></g></g></svg>