<?xml version="1.0" encoding="UTF-8" standalone="no"?>
<!-- Generator: Adobe Illustrator 18.0.0, SVG Export Plug-In . SVG Version: 6.00 Build 0)  -->

<svg
   xmlns:dc="http://purl.org/dc/elements/1.1/"
   xmlns:cc="http://creativecommons.org/ns#"
   xmlns:rdf="http://www.w3.org/1999/02/22-rdf-syntax-ns#"
   xmlns:svg="http://www.w3.org/2000/svg"
   xmlns="http://www.w3.org/2000/svg"
   xmlns:sodipodi="http://sodipodi.sourceforge.net/DTD/sodipodi-0.dtd"
   xmlns:inkscape="http://www.inkscape.org/namespaces/inkscape"
   version="1.1"
   id="Layer_1"
   x="0px"
   y="0px"
   viewBox="0 0 300 600"
   enable-background="new 0 0 216 216"
   xml:space="preserve"
   inkscape:version="0.91 r13725"
   sodipodi:docname="facebook.svg"
   width="300"
   height="600"><metadata
     id="metadata8"><rdf:RDF><cc:Work
         rdf:about=""><dc:format>image/svg+xml</dc:format><dc:type
           rdf:resource="http://purl.org/dc/dcmitype/StillImage" /><dc:title></dc:title></cc:Work></rdf:RDF></metadata><defs
     id="defs6" /><sodipodi:namedview
     pagecolor="#ffffff"
     bordercolor="#666666"
     borderopacity="1"
     objecttolerance="10"
     gridtolerance="10"
     guidetolerance="10"
     inkscape:pageopacity="0"
     inkscape:pageshadow="2"
     inkscape:window-width="1022"
     inkscape:window-height="704"
     id="namedview4"
     showgrid="false"
     inkscape:zoom="0.5462963"
     inkscape:cx="-57.898866"
     inkscape:cy="420.568"
     inkscape:window-x="85"
     inkscape:window-y="89"
     inkscape:window-maximized="0"
     inkscape:current-layer="Layer_1" /><path
     id="White_2_"
     d="m 240.95069,348.02212 -178.044241,0 c -6.113903,0 -11.023551,4.90965 -11.023551,11.02355 l 0,178.04425 c 0,6.11391 4.909648,11.02355 11.023551,11.02355 l 95.877101,0 0,-77.44276 -26.12304,0 0,-30.19897 26.03041,0 0,-22.23237 c 0,-25.84514 15.74793,-39.92564 38.81401,-39.92564 11.02355,0 20.56495,0.83371 23.34399,1.20425 l 0,27.04939 -16.02583,0 c -12.50571,0 -15.00685,5.92863 -15.00685,14.72895 l 0,19.26805 29.92106,0 -3.89066,30.19898 -25.93777,0 0,77.35012 50.94919,0 c 6.1139,0 11.02355,-4.90964 11.02355,-11.02355 l 0,-178.04425 c 0.0926,-6.1139 -4.81702,-11.02355 -10.93092,-11.02355 z"
     inkscape:connector-curvature="0"
     style="fill:#ffffff" /><path
     style="fill:#000000"
     inkscape:connector-curvature="0"
     d="m 242.7812,53.391882 -178.044243,0 c -6.113903,0 -11.023551,4.909649 -11.023551,11.023551 l 0,178.044247 c 0,6.11391 4.909648,11.02355 11.023551,11.02355 l 95.877093,0 0,-77.44276 -26.12304,0 0,-30.19897 26.03041,0 0,-22.23237 c 0,-25.845139 15.74793,-39.925641 38.81401,-39.925641 11.02355,0 20.56495,0.833714 23.34399,1.204253 l 0,27.049388 -16.02583,0 c -12.50571,0 -15.00685,5.92863 -15.00685,14.72895 l 0,19.26805 29.92106,0 -3.89066,30.19898 -25.93777,0 0,77.35012 50.94919,0 c 6.1139,0 11.02355,-4.90964 11.02355,-11.02355 l 0,-178.044247 c 0.0926,-6.113902 -4.81702,-11.023551 -10.93092,-11.023551 z"
     id="White_2_-3" /></svg>