<?xml version="1.0" encoding="UTF-8" standalone="no"?>
<svg
   xmlns:dc="http://purl.org/dc/elements/1.1/"
   xmlns:cc="http://creativecommons.org/ns#"
   xmlns:rdf="http://www.w3.org/1999/02/22-rdf-syntax-ns#"
   xmlns:svg="http://www.w3.org/2000/svg"
   xmlns="http://www.w3.org/2000/svg"
   xmlns:sodipodi="http://sodipodi.sourceforge.net/DTD/sodipodi-0.dtd"
   xmlns:inkscape="http://www.inkscape.org/namespaces/inkscape"
   version="1.1"
   x="0px"
   y="0px"
   viewBox="0 0 66 132"
   enable-background="new 0 0 100 100"
   xml:space="preserve"
   id="svg2"
   inkscape:version="0.91 r13725"
   sodipodi:docname="linkwhite.svg"
   width="66"
   height="132"><metadata
     id="metadata14"><rdf:RDF><cc:Work
         rdf:about=""><dc:format>image/svg+xml</dc:format><dc:type
           rdf:resource="http://purl.org/dc/dcmitype/StillImage" /><dc:title /></cc:Work></rdf:RDF></metadata><defs
     id="defs12" /><sodipodi:namedview
     pagecolor="#ffffff"
     bordercolor="#666666"
     borderopacity="1"
     objecttolerance="10"
     gridtolerance="10"
     guidetolerance="10"
     inkscape:pageopacity="0"
     inkscape:pageshadow="2"
     inkscape:window-width="1275"
     inkscape:window-height="711"
     id="namedview10"
     showgrid="true"
     fit-margin-top="0"
     fit-margin-left="0"
     fit-margin-right="0"
     fit-margin-bottom="0"
     inkscape:zoom="3.776"
     inkscape:cx="15.96231"
     inkscape:cy="77.172488"
     inkscape:window-x="177"
     inkscape:window-y="99"
     inkscape:window-maximized="0"
     inkscape:current-layer="svg2"
     showguides="true"><inkscape:grid
       type="xygrid"
       id="grid3363" /></sodipodi:namedview><g
     id="g3411"
     transform="matrix(0.43584805,0,0,0.43584806,12.286921,9.786897)"
     style="fill:#999999"><path
       id="path3413"
       d="m 37.109,61.152 c 0.28906,0.54297 0.57812,1.0273 0.75781,1.332 -0.26172,-0.4375 -0.50781,-0.88281 -0.74609,-1.332 z"
       inkscape:connector-curvature="0"
       style="fill:#999999" /><path
       id="path3415"
       d="m 38.062,62.805 0.0078,0 c -0.04687,-0.07813 -0.10156,-0.15234 -0.14844,-0.23047 0.08594,0.14453 0.14062,0.23047 0.14062,0.23047 z"
       inkscape:connector-curvature="0"
       style="fill:#999999" /><path
       id="path3417"
       d="m 51.812,73.445 c -0.63281,-0.19531 -1.25,-0.42578 -1.8555,-0.66797 -0.0039,0.0039 -0.0078,0.0039 -0.0078,0.0039 0.05859,0.02344 0.77734,0.32422 1.8633,0.66406 z"
       inkscape:connector-curvature="0"
       style="fill:#999999" /><path
       id="path3419"
       d="m 52.227,73.57 c 0.0039,0 0.0039,-0.0039 0.0078,-0.0039 -0.10547,-0.03125 -0.21484,-0.05859 -0.31641,-0.08984 0.09766,0.03125 0.20312,0.0625 0.30859,0.09375 z"
       inkscape:connector-curvature="0"
       style="fill:#999999" /><path
       id="path3421"
       d="m 74.457,24.953 -15.137,0 c -1.3086,0 -2.5898,0.10156 -3.8438,0.29297 -0.27344,0.04297 -0.53906,0.10156 -0.8125,0.15234 4.6445,2.6641 8.4688,6.6055 10.988,11.344 l 9.5859,0 c 7.3203,0 13.258,5.9375 13.258,13.258 0,7.3205 -5.9375,13.258 -13.258,13.258 l -16.559,0 c -3.3047,0 -6.3242,-1.2109 -8.6445,-3.2109 l -0.0039,0.0039 c 0,-0.0039 0,-0.0039 -0.0039,-0.0039 -0.49219,-0.41406 -0.88672,-0.80078 -1.207,-1.1484 -0.69922,-0.76563 -1.0117,-1.3047 -1.0117,-1.3047 0,-0.0039 0.0039,-0.0039 0.0039,-0.0039 l -0.0039,-0.0039 c -1.5039,-2.1484 -2.3906,-4.7656 -2.3906,-7.5898 0,-2.7461 0.83594,-5.2969 2.2617,-7.4141 0.03906,-0.05859 0.08594,-0.11719 0.12891,-0.17578 -1.7344,-1.4727 -3.9766,-2.3672 -6.4297,-2.3672 l -5.0391,0 c -1.3242,3.0508 -2.0664,6.4141 -2.0664,9.957 0,3.5391 0.73828,6.9023 2.0625,9.9531 0.24219,0.5625 0.50781,1.1094 0.79297,1.6523 0.23828,0.44922 0.48047,0.89453 0.74609,1.332 0.01953,0.03125 0.03516,0.05859 0.05469,0.08984 0.04687,0.07812 0.09766,0.15234 0.14844,0.23047 2.793,4.4648 6.9492,7.9805 11.887,9.9727 0.60938,0.24609 1.2266,0.47266 1.8555,0.66797 0.03516,0.01172 0.06641,0.02344 0.10156,0.03125 0.10547,0.03516 0.21094,0.0625 0.31641,0.08984 0.26953,0.07813 0.53906,0.16016 0.81641,0.23047 0.0039,0 0.0078,0.0039 0.01172,0.0039 2,0.51172 4.0977,0.78516 6.2539,0.78516 l 15.137,0 c 13.832,0 25.043,-11.215 25.043,-25.043 0.0039,-13.824 -11.211,-25.039 -25.043,-25.039 z"
       inkscape:connector-curvature="0"
       style="fill:#999999" /><path
       id="path3423"
       d="m 25.543,75.047 15.137,0 c 1.3086,0 2.5938,-0.10156 3.8477,-0.29297 0.27344,-0.04297 0.54297,-0.10156 0.8125,-0.15234 -4.6445,-2.6641 -8.4688,-6.6055 -10.988,-11.344 l -9.5898,0 c -7.3203,0 -13.258,-5.9375 -13.258,-13.258 0,-7.3205 5.9336,-13.258 13.258,-13.258 l 16.559,0 c 3.3047,0 6.3242,1.2109 8.6445,3.2109 l 0.0039,-0.0039 c 0,0 0,0.0039 0.0039,0.0039 0.49609,0.41406 0.88672,0.80078 1.207,1.1484 0.69922,0.76172 1.0117,1.3008 1.0117,1.3008 0,0 0,0.0039 -0.0039,0.0039 0,0 0.0039,0 0.0039,0.0039 1.5039,2.1484 2.3906,4.7656 2.3906,7.5898 0,2.7461 -0.83594,5.2969 -2.2656,7.4102 -0.03906,0.0625 -0.08594,0.11719 -0.12891,0.17578 1.7344,1.4727 3.9805,2.3672 6.4297,2.3672 l 5.043,0 c 1.3242,-3.0547 2.0664,-6.418 2.0664,-9.957 0,-3.5391 -0.73828,-6.9023 -2.0625,-9.9531 -0.24219,-0.5625 -0.50781,-1.1094 -0.79297,-1.6523 -0.23828,-0.44922 -0.48047,-0.89844 -0.74609,-1.332 -0.01953,-0.03125 -0.03516,-0.05859 -0.05469,-0.08984 -0.04687,-0.07813 -0.09766,-0.15234 -0.14844,-0.23047 -2.793,-4.4648 -6.9492,-7.9805 -11.887,-9.9727 -0.60938,-0.24609 -1.2266,-0.47266 -1.8555,-0.67188 -0.03516,-0.01172 -0.06641,-0.01953 -0.10156,-0.03125 -0.10547,-0.03125 -0.21094,-0.05859 -0.31641,-0.08984 -0.26953,-0.08203 -0.53906,-0.16016 -0.81641,-0.23047 -0.0039,0 -0.0078,0 -0.0078,-0.0039 -2,-0.51562 -4.0938,-0.78906 -6.2539,-0.78906 l -15.141,0.0039 c -13.832,0 -25.043,11.211 -25.043,25.043 -0.003906,13.836 11.211,25.051 25.043,25.051 z"
       inkscape:connector-curvature="0"
       style="fill:#999999" /><path
       id="path3425"
       d="m 53.059,73.805 c -0.0039,0 -0.0078,-0.0039 -0.01172,-0.0039 0.0039,0 0.0078,0 0.01172,0.0039 z"
       inkscape:connector-curvature="0"
       style="fill:#999999" /><path
       id="path3427"
       d="m 51.812,73.445 c 0.03516,0.01172 0.06641,0.02344 0.10156,0.03125 C 51.88231,73.46845 51.84715,73.45672 51.812,73.445 Z"
       inkscape:connector-curvature="0"
       style="fill:#999999" /><path
       id="path3429"
       d="m 47.805,57.141 c 0,0 0.3125,0.53906 1.0117,1.3047 0.0039,-0.0078 0.01172,-0.01172 0.01563,-0.01562 -0.36719,-0.40625 -0.71094,-0.83984 -1.0234,-1.2891 l -0.0039,0 z"
       inkscape:connector-curvature="0"
       style="fill:#999999" /><path
       id="path3431"
       d="m 37.922,62.57 c -0.01953,-0.02734 -0.03516,-0.05469 -0.05469,-0.08984 0.01953,0.03516 0.03516,0.0625 0.05469,0.08984 z"
       inkscape:connector-curvature="0"
       style="fill:#999999" /><path
       id="path3433"
       d="m 48.832,58.43 c -0.0078,0.0039 -0.01172,0.0078 -0.01563,0.01562 0.32031,0.34766 0.71094,0.73438 1.207,1.1484 0,-0.0039 0.0039,-0.0039 0.0039,-0.0039 -0.42188,-0.36328 -0.82422,-0.75 -1.1953,-1.1602 z"
       inkscape:connector-curvature="0"
       style="fill:#999999" /><path
       id="path3435"
       d="m 50.027,59.594 c 0,-0.0039 0.0039,-0.0078 0.01172,-0.01563 -0.0039,0.0039 -0.01172,0.0078 -0.01562,0.01172 0,0 0.0039,0 0.0039,0.0039 z"
       inkscape:connector-curvature="0"
       style="fill:#999999" /><path
       id="path3437"
       d="m 50.023,59.59 0.0039,0 0,0.0039 -0.0039,0 z"
       inkscape:connector-curvature="0"
       style="fill:#999999" /></g><g
     transform="matrix(0.43584805,0,0,0.43584806,11.537867,75.71877)"
     id="g3459"
     style="fill:#ffffff;fill-opacity:1"><path
       inkscape:connector-curvature="0"
       d="m 37.109,61.152 c 0.28906,0.54297 0.57812,1.0273 0.75781,1.332 -0.26172,-0.4375 -0.50781,-0.88281 -0.74609,-1.332 z"
       id="path3461"
       style="fill:#ffffff;fill-opacity:1" /><path
       inkscape:connector-curvature="0"
       d="m 38.062,62.805 0.0078,0 c -0.04687,-0.07813 -0.10156,-0.15234 -0.14844,-0.23047 0.08594,0.14453 0.14062,0.23047 0.14062,0.23047 z"
       id="path3463"
       style="fill:#ffffff;fill-opacity:1" /><path
       inkscape:connector-curvature="0"
       d="m 51.812,73.445 c -0.63281,-0.19531 -1.25,-0.42578 -1.8555,-0.66797 -0.0039,0.0039 -0.0078,0.0039 -0.0078,0.0039 0.05859,0.02344 0.77734,0.32422 1.8633,0.66406 z"
       id="path3465"
       style="fill:#ffffff;fill-opacity:1" /><path
       inkscape:connector-curvature="0"
       d="m 52.227,73.57 c 0.0039,0 0.0039,-0.0039 0.0078,-0.0039 -0.10547,-0.03125 -0.21484,-0.05859 -0.31641,-0.08984 0.09766,0.03125 0.20312,0.0625 0.30859,0.09375 z"
       id="path3467"
       style="fill:#ffffff;fill-opacity:1" /><path
       inkscape:connector-curvature="0"
       d="m 74.457,24.953 -15.137,0 c -1.3086,0 -2.5898,0.10156 -3.8438,0.29297 -0.27344,0.04297 -0.53906,0.10156 -0.8125,0.15234 4.6445,2.6641 8.4688,6.6055 10.988,11.344 l 9.5859,0 c 7.3203,0 13.258,5.9375 13.258,13.258 0,7.3205 -5.9375,13.258 -13.258,13.258 l -16.559,0 c -3.3047,0 -6.3242,-1.2109 -8.6445,-3.2109 l -0.0039,0.0039 c 0,-0.0039 0,-0.0039 -0.0039,-0.0039 -0.49219,-0.41406 -0.88672,-0.80078 -1.207,-1.1484 -0.69922,-0.76563 -1.0117,-1.3047 -1.0117,-1.3047 0,-0.0039 0.0039,-0.0039 0.0039,-0.0039 l -0.0039,-0.0039 c -1.5039,-2.1484 -2.3906,-4.7656 -2.3906,-7.5898 0,-2.7461 0.83594,-5.2969 2.2617,-7.4141 0.03906,-0.05859 0.08594,-0.11719 0.12891,-0.17578 -1.7344,-1.4727 -3.9766,-2.3672 -6.4297,-2.3672 l -5.0391,0 c -1.3242,3.0508 -2.0664,6.4141 -2.0664,9.957 0,3.5391 0.73828,6.9023 2.0625,9.9531 0.24219,0.5625 0.50781,1.1094 0.79297,1.6523 0.23828,0.44922 0.48047,0.89453 0.74609,1.332 0.01953,0.03125 0.03516,0.05859 0.05469,0.08984 0.04687,0.07812 0.09766,0.15234 0.14844,0.23047 2.793,4.4648 6.9492,7.9805 11.887,9.9727 0.60938,0.24609 1.2266,0.47266 1.8555,0.66797 0.03516,0.01172 0.06641,0.02344 0.10156,0.03125 0.10547,0.03516 0.21094,0.0625 0.31641,0.08984 0.26953,0.07813 0.53906,0.16016 0.81641,0.23047 0.0039,0 0.0078,0.0039 0.01172,0.0039 2,0.51172 4.0977,0.78516 6.2539,0.78516 l 15.137,0 c 13.832,0 25.043,-11.215 25.043,-25.043 0.0039,-13.824 -11.211,-25.039 -25.043,-25.039 z"
       id="path3469"
       style="fill:#ffffff;fill-opacity:1" /><path
       inkscape:connector-curvature="0"
       d="m 25.543,75.047 15.137,0 c 1.3086,0 2.5938,-0.10156 3.8477,-0.29297 0.27344,-0.04297 0.54297,-0.10156 0.8125,-0.15234 -4.6445,-2.6641 -8.4688,-6.6055 -10.988,-11.344 l -9.5898,0 c -7.3203,0 -13.258,-5.9375 -13.258,-13.258 0,-7.3205 5.9336,-13.258 13.258,-13.258 l 16.559,0 c 3.3047,0 6.3242,1.2109 8.6445,3.2109 l 0.0039,-0.0039 c 0,0 0,0.0039 0.0039,0.0039 0.49609,0.41406 0.88672,0.80078 1.207,1.1484 0.69922,0.76172 1.0117,1.3008 1.0117,1.3008 0,0 0,0.0039 -0.0039,0.0039 0,0 0.0039,0 0.0039,0.0039 1.5039,2.1484 2.3906,4.7656 2.3906,7.5898 0,2.7461 -0.83594,5.2969 -2.2656,7.4102 -0.03906,0.0625 -0.08594,0.11719 -0.12891,0.17578 1.7344,1.4727 3.9805,2.3672 6.4297,2.3672 l 5.043,0 c 1.3242,-3.0547 2.0664,-6.418 2.0664,-9.957 0,-3.5391 -0.73828,-6.9023 -2.0625,-9.9531 -0.24219,-0.5625 -0.50781,-1.1094 -0.79297,-1.6523 -0.23828,-0.44922 -0.48047,-0.89844 -0.74609,-1.332 -0.01953,-0.03125 -0.03516,-0.05859 -0.05469,-0.08984 -0.04687,-0.07813 -0.09766,-0.15234 -0.14844,-0.23047 -2.793,-4.4648 -6.9492,-7.9805 -11.887,-9.9727 -0.60938,-0.24609 -1.2266,-0.47266 -1.8555,-0.67188 -0.03516,-0.01172 -0.06641,-0.01953 -0.10156,-0.03125 -0.10547,-0.03125 -0.21094,-0.05859 -0.31641,-0.08984 -0.26953,-0.08203 -0.53906,-0.16016 -0.81641,-0.23047 -0.0039,0 -0.0078,0 -0.0078,-0.0039 -2,-0.51562 -4.0938,-0.78906 -6.2539,-0.78906 l -15.141,0.0039 c -13.832,0 -25.043,11.211 -25.043,25.043 -0.003906,13.836 11.211,25.051 25.043,25.051 z"
       id="path3471"
       style="fill:#ffffff;fill-opacity:1" /><path
       inkscape:connector-curvature="0"
       d="m 53.059,73.805 c -0.0039,0 -0.0078,-0.0039 -0.01172,-0.0039 0.0039,0 0.0078,0 0.01172,0.0039 z"
       id="path3473"
       style="fill:#ffffff;fill-opacity:1" /><path
       inkscape:connector-curvature="0"
       d="m 51.812,73.445 c 0.03516,0.01172 0.06641,0.02344 0.10156,0.03125 C 51.88231,73.46845 51.84715,73.45672 51.812,73.445 Z"
       id="path3475"
       style="fill:#ffffff;fill-opacity:1" /><path
       inkscape:connector-curvature="0"
       d="m 47.805,57.141 c 0,0 0.3125,0.53906 1.0117,1.3047 0.0039,-0.0078 0.01172,-0.01172 0.01563,-0.01562 -0.36719,-0.40625 -0.71094,-0.83984 -1.0234,-1.2891 l -0.0039,0 z"
       id="path3477"
       style="fill:#ffffff;fill-opacity:1" /><path
       inkscape:connector-curvature="0"
       d="m 37.922,62.57 c -0.01953,-0.02734 -0.03516,-0.05469 -0.05469,-0.08984 0.01953,0.03516 0.03516,0.0625 0.05469,0.08984 z"
       id="path3479"
       style="fill:#ffffff;fill-opacity:1" /><path
       inkscape:connector-curvature="0"
       d="m 48.832,58.43 c -0.0078,0.0039 -0.01172,0.0078 -0.01563,0.01562 0.32031,0.34766 0.71094,0.73438 1.207,1.1484 0,-0.0039 0.0039,-0.0039 0.0039,-0.0039 -0.42188,-0.36328 -0.82422,-0.75 -1.1953,-1.1602 z"
       id="path3481"
       style="fill:#ffffff;fill-opacity:1" /><path
       inkscape:connector-curvature="0"
       d="m 50.027,59.594 c 0,-0.0039 0.0039,-0.0078 0.01172,-0.01563 -0.0039,0.0039 -0.01172,0.0078 -0.01562,0.01172 0,0 0.0039,0 0.0039,0.0039 z"
       id="path3483"
       style="fill:#ffffff;fill-opacity:1" /><path
       inkscape:connector-curvature="0"
       d="m 50.023,59.59 0.0039,0 0,0.0039 -0.0039,0 z"
       id="path3485"
       style="fill:#ffffff;fill-opacity:1" /></g></svg>