<?xml version="1.0" encoding="UTF-8" standalone="no"?>
<svg
   xmlns:dc="http://purl.org/dc/elements/1.1/"
   xmlns:cc="http://creativecommons.org/ns#"
   xmlns:rdf="http://www.w3.org/1999/02/22-rdf-syntax-ns#"
   xmlns:svg="http://www.w3.org/2000/svg"
   xmlns="http://www.w3.org/2000/svg"
   xmlns:sodipodi="http://sodipodi.sourceforge.net/DTD/sodipodi-0.dtd"
   xmlns:inkscape="http://www.inkscape.org/namespaces/inkscape"
   width="300"
   height="600"
   id="svg3070"
   version="1.1"
   inkscape:version="1.0beta1 (32d4812, 2019-09-19)"
   sodipodi:docname="linkedin.svg">
  <defs
     id="defs3072" />
  <sodipodi:namedview
     id="base"
     pagecolor="#ffffff"
     bordercolor="#666666"
     borderopacity="1.0"
     inkscape:pageopacity="0.0"
     inkscape:pageshadow="2"
     inkscape:zoom="0.5"
     inkscape:cx="-268"
     inkscape:cy="556"
     inkscape:document-units="px"
     inkscape:current-layer="layer1"
     showgrid="false"
     fit-margin-top="10"
     fit-margin-left="10"
     fit-margin-right="10"
     fit-margin-bottom="10"
     inkscape:window-width="1129"
     inkscape:window-height="717"
     inkscape:window-x="311"
     inkscape:window-y="94"
     inkscape:window-maximized="0"
     inkscape:document-rotation="0" />
  <metadata
     id="metadata3075">
    <rdf:RDF>
      <cc:Work
         rdf:about="">
        <dc:format>image/svg+xml</dc:format>
        <dc:type
           rdf:resource="http://purl.org/dc/dcmitype/StillImage" />
        <dc:title></dc:title>
      </cc:Work>
    </rdf:RDF>
  </metadata>
  <g
     inkscape:label="Layer 1"
     inkscape:groupmode="layer"
     id="layer1"
     transform="translate(-404.43526,-385.74571)">
    <path
       inkscape:connector-curvature="0"
       id="path14"
       style="opacity:1;fill:#000000;fill-opacity:1;fill-rule:nonzero;stroke:none;stroke-width:2.54707;stop-opacity:1"
       d="m 457.60978,452.21454 c 0,-7.53932 6.2668,-13.65482 13.99767,-13.65482 H 633.0304 c 7.7306,0 13.99765,6.1155 13.99765,13.65482 v 163.31033 c 0,7.54185 -6.26705,13.65482 -13.99765,13.65482 H 471.60745 c -7.73087,0 -13.99767,-6.11297 -13.99767,-13.65482 z" />
    <path
       inkscape:connector-curvature="0"
       id="path28"
       style="opacity:1;fill:#ffffff;fill-opacity:1;fill-rule:evenodd;stroke:none;stroke-width:2.54707;stop-opacity:1"
       d="m 515.02833,598.12839 v -86.0756 h -28.60995 v 86.0756 z m -14.3051,-97.82777 c 9.97687,0 16.18662,-6.60963 16.18662,-14.86978 -0.186,-8.44607 -6.20975,-14.87232 -15.99737,-14.87232 -9.7866,0 -16.18535,6.42625 -16.18535,14.87232 0,8.26015 6.20847,14.86978 15.80965,14.86978 h 0.186 z" />
    <path
       inkscape:connector-curvature="0"
       id="path30"
       style="opacity:1;fill:#ffffff;fill-opacity:1;fill-rule:evenodd;stroke:none;stroke-width:2.54707;stop-opacity:1"
       d="m 530.8591,598.12839 h 28.6097 v -48.06825 c 0,-2.57255 0.186,-5.14255 0.9414,-6.98152 2.0682,-5.13998 6.7757,-10.46335 14.67925,-10.46335 10.35255,0 14.49383,7.89337 14.49383,19.4647 v 46.04842 h 28.6074 v -49.35452 c 0,-26.43858 -14.11458,-38.7409 -32.93768,-38.7409 -15.4342,0 -22.2099,8.62692 -25.97447,14.503 h 0.191 v -12.48318 h -28.60965 c 0.37545,8.07675 0,86.0756 0,86.0756 z" />
    <path
       d="m 457.60978,738.21454 c 0,-7.53932 6.2668,-13.65482 13.99767,-13.65482 H 633.0304 c 7.7306,0 13.99765,6.1155 13.99765,13.65482 v 163.31033 c 0,7.54185 -6.26705,13.65482 -13.99765,13.65482 H 471.60745 c -7.73087,0 -13.99767,-6.11297 -13.99767,-13.65482 z"
       style="opacity:1;fill:#ffffff;fill-opacity:1;fill-rule:nonzero;stroke:none;stroke-width:2.54707;stop-opacity:1"
       id="path18"
       inkscape:connector-curvature="0" />
    <path
       d="m 515.02833,884.12839 v -86.0756 h -28.60995 v 86.0756 z m -14.3051,-97.82777 c 9.97687,0 16.18662,-6.60963 16.18662,-14.86978 -0.186,-8.44607 -6.20975,-14.87232 -15.99737,-14.87232 -9.7866,0 -16.18535,6.42625 -16.18535,14.87232 0,8.26015 6.20847,14.86978 15.80965,14.86978 h 0.186 z"
       style="opacity:1;fill:#cc0000;fill-opacity:1;fill-rule:evenodd;stroke:none;stroke-width:2.54707;stop-opacity:1"
       id="path20"
       inkscape:connector-curvature="0" />
    <path
       d="m 530.8591,884.12839 h 28.6097 v -48.06825 c 0,-2.57255 0.186,-5.14255 0.9414,-6.98152 2.0682,-5.13998 6.7757,-10.46335 14.67925,-10.46335 10.35255,0 14.49383,7.89337 14.49383,19.4647 v 46.04842 h 28.6074 v -49.35452 c 0,-26.43858 -14.11458,-38.7409 -32.93768,-38.7409 -15.4342,0 -22.2099,8.62692 -25.97447,14.503 h 0.191 v -12.48318 h -28.60965 c 0.37545,8.07675 0,86.0756 0,86.0756 z"
       style="opacity:1;fill:#cc0000;fill-opacity:1;fill-rule:evenodd;stroke:none;stroke-width:2.54707;stop-opacity:1"
       id="path22"
       inkscape:connector-curvature="0" />
  </g>
</svg>
