<?xml version="1.0" encoding="UTF-8" standalone="no"?>
<svg
   xmlns:dc="http://purl.org/dc/elements/1.1/"
   xmlns:cc="http://creativecommons.org/ns#"
   xmlns:rdf="http://www.w3.org/1999/02/22-rdf-syntax-ns#"
   xmlns:svg="http://www.w3.org/2000/svg"
   xmlns="http://www.w3.org/2000/svg"
   xmlns:sodipodi="http://sodipodi.sourceforge.net/DTD/sodipodi-0.dtd"
   xmlns:inkscape="http://www.inkscape.org/namespaces/inkscape"
   version="1.1"
   x="0px"
   y="0px"
   viewBox="0 0 50 100"
   enable-background="new 0 0 100 100"
   xml:space="preserve"
   id="svg2"
   inkscape:version="0.91 r13725"
   sodipodi:docname="warning.svg"
   width="50"
   height="100"><metadata
     id="metadata14"><rdf:RDF><cc:Work
         rdf:about=""><dc:format>image/svg+xml</dc:format><dc:type
           rdf:resource="http://purl.org/dc/dcmitype/StillImage" /><dc:title></dc:title></cc:Work></rdf:RDF></metadata><defs
     id="defs12" /><sodipodi:namedview
     pagecolor="#ffffff"
     bordercolor="#666666"
     borderopacity="1"
     objecttolerance="10"
     gridtolerance="10"
     guidetolerance="10"
     inkscape:pageopacity="0"
     inkscape:pageshadow="2"
     inkscape:window-width="1218"
     inkscape:window-height="693"
     id="namedview10"
     showgrid="true"
     inkscape:zoom="4"
     inkscape:cx="-5.3437463"
     inkscape:cy="38.959552"
     inkscape:window-x="0"
     inkscape:window-y="23"
     inkscape:window-maximized="0"
     inkscape:current-layer="svg2"
     showguides="false"><inkscape:grid
       type="xygrid"
       id="grid3333" /></sodipodi:namedview><path
     d="M 41.198503,35.949896 26.913071,11.032266 c -0.377097,-0.508384 -0.884768,-1.025332 -1.393153,-1.025332 -0.508741,0 -1.016412,0.516591 -1.393152,1.025332 L 9.8163604,35.994847 c -0.1344987,0.523726 -0.09918,1.378169 1.1933666,2.026048 0.0057,0 0.01,0.0017 0.01534,0.0017 l 28.989345,0 c 1.334286,-0.667144 1.332503,-1.553338 1.18409,-2.072783 z M 27.23808,34.932413 c -0.409918,0.341777 -0.98359,0.512309 -1.719588,0.512309 -0.743491,0 -1.326439,-0.170889 -1.74706,-0.512309 -0.420978,-0.34142 -0.631468,-0.816984 -0.631468,-1.425618 0,-0.615412 0.202641,-1.093472 0.608635,-1.43525 0.405994,-0.341064 0.995721,-0.511595 1.769893,-0.511595 0.766679,0 1.34713,0.170888 1.741707,0.511595 0.394222,0.341778 0.592224,0.820194 0.592224,1.43525 3.57e-4,0.609705 -0.204781,1.084198 -0.614343,1.425618 z m 0.151981,-4.90725 -3.720307,0 -0.648948,-10.496271 c 0,-0.827687 1.118447,-1.499468 2.499112,-1.499468 1.379952,0 2.498756,0.671425 2.498756,1.499468 l -0.628613,10.496271 z"
     id="path4"
     inkscape:connector-curvature="0"
     style="fill:#ffff00;stroke:#000000;stroke-width:0.69999999" /><path
     style="fill:#ffff00;stroke:#000000;stroke-width:0.69999999"
     inkscape:connector-curvature="0"
     id="path4-6"
     d="M 40.934703,86.935132 26.649271,62.017501 c -0.377097,-0.508384 -0.884768,-1.025332 -1.393153,-1.025332 -0.508741,0 -1.016412,0.516591 -1.393152,1.025332 L 9.5525603,86.980083 c -0.134499,0.523726 -0.09918,1.378169 1.1933667,2.026048 0.0057,0 0.01,0.0017 0.01534,0.0017 l 28.989345,0 c 1.334286,-0.667144 1.332503,-1.553338 1.18409,-2.072783 z M 26.97428,85.917649 c -0.409918,0.341777 -0.98359,0.512309 -1.719588,0.512309 -0.743491,0 -1.326439,-0.170889 -1.74706,-0.512309 -0.420978,-0.34142 -0.631468,-0.816984 -0.631468,-1.425618 0,-0.615412 0.202641,-1.093472 0.608635,-1.43525 0.405994,-0.341064 0.995721,-0.511595 1.769893,-0.511595 0.766679,0 1.34713,0.170888 1.741707,0.511595 0.394222,0.341778 0.592224,0.820194 0.592224,1.43525 3.57e-4,0.609705 -0.204781,1.084198 -0.614343,1.425618 z m 0.151981,-4.90725 -3.720307,0 -0.648948,-10.496271 c 0,-0.827687 1.118447,-1.499468 2.499112,-1.499468 1.379952,0 2.498756,0.671425 2.498756,1.499468 l -0.628613,10.496271 z" /></svg>